<?xml version="1.0" encoding="UTF-8" standalone="no"?>
<!-- Uploaded to: SVG Repo, www.svgrepo.com, Generator: SVG Repo Mixer Tools -->

<svg
   fill="#000000"
   width="747.65942"
   height="747.65942"
   viewBox="0 0 29.906377 29.906377"
   version="1.1"
   id="svg1"
   sodipodi:docname="logo.svg"
   inkscape:version="1.4 (86a8ad7, 2024-10-11)"
   inkscape:export-filename="dev_portal_index.png"
   inkscape:export-xdpi="96"
   inkscape:export-ydpi="96"
   xmlns:inkscape="http://www.inkscape.org/namespaces/inkscape"
   xmlns:sodipodi="http://sodipodi.sourceforge.net/DTD/sodipodi-0.dtd"
   xmlns="http://www.w3.org/2000/svg"
   xmlns:svg="http://www.w3.org/2000/svg"
   xmlns:rdf="http://www.w3.org/1999/02/22-rdf-syntax-ns#"
   xmlns:cc="http://creativecommons.org/ns#"
   xmlns:dc="http://purl.org/dc/elements/1.1/">
  <defs
     id="defs1" />
  <sodipodi:namedview
     id="namedview1"
     pagecolor="#ffffff"
     bordercolor="#000000"
     borderopacity="0.25"
     inkscape:showpageshadow="2"
     inkscape:pageopacity="0.0"
     inkscape:pagecheckerboard="0"
     inkscape:deskcolor="#d1d1d1"
     inkscape:zoom="1.06375"
     inkscape:cx="373.67803"
     inkscape:cy="373.67803"
     inkscape:window-width="1920"
     inkscape:window-height="1111"
     inkscape:window-x="-9"
     inkscape:window-y="-9"
     inkscape:window-maximized="1"
     inkscape:current-layer="svg1" />
  <title
     id="title1">develop</title>
  <metadata
     id="metadata1">
    <rdf:RDF>
      <cc:Work
         rdf:about="">
        <dc:title>develop</dc:title>
      </cc:Work>
    </rdf:RDF>
  </metadata>
  <path
     id="path33"
     style="fill:#01f9c6;fill-opacity:1;fill-rule:evenodd;stroke-width:0.142057;stroke-linecap:round;stroke-linejoin:round"
     d="M 1.0713744,1.849936 A 0.92346363,0.92346363 0 0 0 0.14794965,2.7732881 V 22.554728 a 0.92346363,0.92346363 0 0 0 0.92004745,0.923424 l 10.1915929,0.03648 a 0.92337127,0.92337127 0 0 0 -0.0062,0.06284 v 2.63219 H 8.4327723 a 0.92337127,0.92337127 0 0 0 -0.9233522,0.923352 0.92337127,0.92337127 0 0 0 0.9233522,0.923425 h 9.5447037 3.656333 a 0.92337127,0.92337127 0 0 0 0.923353,-0.923425 0.92337127,0.92337127 0 0 0 -0.923353,-0.923352 h -2.732908 v -2.63219 a 0.92337127,0.92337127 0 0 0 -0.0014,-0.03553 l 9.93216,0.03553 a 0.92346363,0.92346363 0 0 0 0.92673,-0.923352 V 2.7732881 A 0.92346363,0.92346363 0 0 0 28.835078,1.849936 Z M 1.9947266,3.6967129 H 27.91178 V 21.727397 L 1.9947266,21.634753 Z M 16.247363,5.6801061 A 0.92337127,0.92337127 0 0 0 15.442128,6.407966 L 12.817426,18.87571 a 0.92337127,0.92337127 0 0 0 0.713323,1.093736 0.92337127,0.92337127 0 0 0 1.093738,-0.713328 L 17.24919,6.7886703 a 0.92337127,0.92337127 0 0 0 -0.713327,-1.0940281 0.92337127,0.92337127 0 0 0 -0.2885,-0.014544 z m -5.487035,2.9284021 a 0.92337127,0.92337127 0 0 0 -0.64865,0.2802036 L 6.9087231,12.189009 a 0.92346363,0.92346363 0 0 0 0,1.285996 l 3.2029549,3.300372 a 0.92337127,0.92337127 0 0 0 1.305671,0.01938 0.92337127,0.92337127 0 0 0 0.01945,-1.305378 L 8.8581278,12.832153 11.436801,10.175003 A 0.92337127,0.92337127 0 0 0 11.417349,8.8692578 0.92337127,0.92337127 0 0 0 10.760328,8.6085082 Z m 8.551755,0 a 0.92337127,0.92337127 0 0 0 -0.657019,0.2607496 0.92337127,0.92337127 0 0 0 -0.01938,1.3057452 l 2.5786,2.65715 -2.5786,2.657224 a 0.92337127,0.92337127 0 0 0 0.01938,1.305378 0.92337127,0.92337127 0 0 0 1.305747,-0.01938 l 3.20288,-3.300372 a 0.92346363,0.92346363 0 0 0 0,-1.285996 L 19.960811,8.8887118 A 0.92337127,0.92337127 0 0 0 19.312083,8.6085082 Z m -6.213939,14.9126608 3.96018,0.01417 a 0.92337127,0.92337127 0 0 0 -0.0042,0.04214 v 2.63219 h -3.954012 v -2.63219 a 0.92337127,0.92337127 0 0 0 -0.002,-0.05631 z"
     inkscape:export-filename="dev_portal_index.png"
     inkscape:export-xdpi="96"
     inkscape:export-ydpi="96" />
</svg>
