<?xml version="1.0" encoding="UTF-8" standalone="no"?>
<!-- Uploaded to: SVG Repo, www.svgrepo.com, Generator: SVG Repo Mixer Tools -->

<svg
   fill="#000000"
   width="747.65942"
   height="747.65942"
   viewBox="0 0 29.906377 29.906377"
   version="1.1"
   id="svg1"
   sodipodi:docname="to_gap_docs.svg"
   inkscape:version="1.4 (86a8ad7, 2024-10-11)"
   inkscape:export-filename="to_gap_docs.png"
   inkscape:export-xdpi="96"
   inkscape:export-ydpi="96"
   xmlns:inkscape="http://www.inkscape.org/namespaces/inkscape"
   xmlns:sodipodi="http://sodipodi.sourceforge.net/DTD/sodipodi-0.dtd"
   xmlns="http://www.w3.org/2000/svg"
   xmlns:svg="http://www.w3.org/2000/svg"
   xmlns:rdf="http://www.w3.org/1999/02/22-rdf-syntax-ns#"
   xmlns:cc="http://creativecommons.org/ns#"
   xmlns:dc="http://purl.org/dc/elements/1.1/">
  <defs
     id="defs1" />
  <sodipodi:namedview
     id="namedview1"
     pagecolor="#ffffff"
     bordercolor="#000000"
     borderopacity="0.25"
     inkscape:showpageshadow="2"
     inkscape:pageopacity="0.0"
     inkscape:pagecheckerboard="0"
     inkscape:deskcolor="#d1d1d1"
     inkscape:zoom="0.531875"
     inkscape:cx="352.52644"
     inkscape:cy="339.36545"
     inkscape:window-width="1920"
     inkscape:window-height="1111"
     inkscape:window-x="-9"
     inkscape:window-y="-9"
     inkscape:window-maximized="1"
     inkscape:current-layer="svg1" />
  <title
     id="title1">develop</title>
  <metadata
     id="metadata1">
    <rdf:RDF>
      <cc:Work
         rdf:about="">
        <dc:title>develop</dc:title>
      </cc:Work>
    </rdf:RDF>
  </metadata>
  <path
     fill="#fff"
     d="m 24.822079,2.5748653 c -0.07801,-0.4134047 0.462805,-0.5798066 0.429005,-1.3962159 -0.04419,-1.87462143 -2.68583,-1.42741647 -2.041023,0.7345083 0.97501,3.5373404 0.266504,5.9956682 -0.349703,7.2358828 -0.306803,0.6201067 -0.894411,-0.1195949 -0.990612,-0.5746076 -0.743608,-3.497039 -2.137224,-4.4122495 -1.251915,-6.8094767 0.698109,-1.88502185 -2.226925,-2.64553054 -2.041024,0.036402 0.01814,0.5798068 0.751408,4.1132471 0.685107,6.1542694 -0.0078,0.2470036 -0.631807,0.4160041 -0.90741,0.3120035 a 12.796045,12.796045 0 0 0 -3.915643,-0.774809 c -5.5835633,0 -10.3117178,4.5357509 -10.3117178,10.1206159 0,4.189948 2.2815264,7.507585 5.6836658,8.905101 -0.7397093,1.045212 -0.5902075,2.073523 -1.2467153,3.387838 5.3781603,-0.0065 6.7119763,-3.884445 10.2051163,-3.874044 3.224037,-0.0039 3.016036,0.02471 6.245273,-0.02211 0.650006,-0.01023 0.361402,-1.305215 0.2158,-1.575618 C 21.656544,17.792837 25.77759,12.718879 25.824391,10.96386 25.90109,8.0128244 25.551389,6.4658075 24.822079,2.5748641 Z M 20.789433,23.085198 C 18.338904,22.582094 14.291959,25.682629 11.769929,25.223723 10.420514,24.96372 9.3402017,20.114665 8.4470914,17.920241 8.1649902,17.261133 7.772384,17.008929 7.4668817,16.525326 7.1873774,16.080719 7.3992755,15.525614 7.3238861,15.24611 6.8818824,13.580792 11.85834,10.989861 16.261489,10.307353 l 3.837644,0.192409 0.273004,1.092013 1.193413,0.263901 -0.313312,2.11902 -5.522462,-0.78911 c -2.054022,0.803408 -3.497041,0.98151 -5.073958,2.437528 0.336704,0.514807 0.124796,1.228513 0.471905,1.743321 0.122206,0.181993 0.707208,0.245701 0.826809,0.416005 -0.208003,0.533004 0.530407,1.81612 0.603206,2.155424 l 0.412106,2.546728 c 1.89282,-0.668207 4.384948,-1.849922 5.866966,-1.994222 1.125814,0.02081 0.256103,-1.84212 0.0286,-2.875632 -0.278206,-1.294815 -2.239926,-0.133904 -3.923447,0.568106 l 0.835913,1.784919 -0.67081,0.975011 -0.306804,-0.715006 -0.455003,0.386104 -1.259714,-3.472339 0.95551,-1.176516 1.082912,0.322405 c 1.150513,-0.501806 2.896433,-1.87592 4.256249,-1.290914 0.295102,0.126104 0.313304,0.391303 0.431603,0.860609 l 0.637009,0.276902 c 0.371805,2.060524 3.135634,7.527087 0.340605,6.951179 z"
     id="path1"
     style="fill:#000000;fill-opacity:1;stroke-width:1.30002" />
</svg>
